<svg width="219" height="58" viewBox="0 0 219 58" fill="none" xmlns="http://www.w3.org/2000/svg">
<g clip-path="url(#clip0_126_433)">
<path d="M5.69824 15.9941V25.0615L15.7178 15.9941H19.9512L8.58398 26.292L20.4053 37H16.1719L5.69824 27.5518V37H2.69531V15.9941H5.69824ZM44.4463 15.9941L52.5469 37H49.5439L47.6836 32.166H38.2061L36.3457 37H33.3428L41.4434 15.9941H44.4463ZM39.3486 29.1631H46.5264L42.9521 19.9053L39.3486 29.1631ZM71.1533 15.9941V25.0615L81.1729 15.9941H85.4062L74.0391 26.292L85.8604 37H81.627L71.1533 27.5518V37H68.1504V15.9941H71.1533ZM109.901 15.9941L118.002 37H114.999L113.139 32.166H103.661L101.801 37H98.7979L106.898 15.9941H109.901ZM104.804 29.1631H111.981L108.407 19.9053L104.804 29.1631ZM150.202 23.4941C150.202 26.4238 148.952 28.0938 146.452 28.5039L150.407 37H147.082L143.186 28.6064H136.608V37H133.605V15.9941H145.104C148.503 15.9941 150.202 17.6982 150.202 21.1064V23.4941ZM136.608 25.6035H144.943C145.744 25.6035 146.32 25.4277 146.672 25.0762C147.023 24.7246 147.199 24.1484 147.199 23.3477V21.2529C147.199 20.4521 147.023 19.876 146.672 19.5244C146.32 19.1729 145.744 18.9971 144.943 18.9971H136.608V25.6035ZM185.229 33.9971C185.229 34.4072 185.151 34.7979 184.995 35.1689C184.839 35.5303 184.624 35.8477 184.351 36.1211C184.077 36.3945 183.755 36.6094 183.384 36.7656C183.022 36.9219 182.637 37 182.227 37H170.229C169.819 37 169.429 36.9219 169.058 36.7656C168.696 36.6094 168.379 36.3945 168.105 36.1211C167.832 35.8477 167.617 35.5303 167.461 35.1689C167.305 34.7979 167.227 34.4072 167.227 33.9971V18.9971C167.227 18.5869 167.305 18.2012 167.461 17.8398C167.617 17.4688 167.832 17.1514 168.105 16.8877C168.379 16.6143 168.696 16.3994 169.058 16.2432C169.429 16.0771 169.819 15.9941 170.229 15.9941H182.227C182.637 15.9941 183.022 16.0771 183.384 16.2432C183.755 16.3994 184.077 16.6143 184.351 16.8877C184.624 17.1514 184.839 17.4688 184.995 17.8398C185.151 18.2012 185.229 18.5869 185.229 18.9971V33.9971ZM170.229 18.9971V33.9971H182.227V18.9971H170.229ZM200.833 15.9941H217.635V18.9971H210.735V37H207.732V18.9971H200.833V15.9941Z" fill="#FBFCFF"/>
</g>
<defs>
<clipPath id="clip0_126_433">
<rect width="219" height="58" fill="white"/>
</clipPath>
</defs>
</svg>
